<?xml version="1.0" encoding="iso-8859-1"?>
<!-- Generator: Adobe Illustrator 19.0.0, SVG Export Plug-In . SVG Version: 6.00 Build 0)  -->
<svg version="1.1" id="Layer_1" xmlns="http://www.w3.org/2000/svg" xmlns:xlink="http://www.w3.org/1999/xlink" x="0px" y="0px"
	 viewBox="0 0 512 512" style="enable-background:new 0 0 512 512;" xml:space="preserve">
<g>
	<path style="fill:#25B99A;" d="M512,256C512,114.617,397.383,0,256,0S0,114.617,0,256s114.617,256,256,256S512,397.383,512,256"/>
	<g>
		<path style="fill:#FFFFFF;" d="M282.483,361.931c0-14.627-11.855-26.483-26.483-26.483s-26.483,11.855-26.483,26.483
			s11.855,26.483,26.483,26.483S282.483,376.558,282.483,361.931"/>
		<path style="fill:#FFFFFF;" d="M256,264.828c-26.774,0-51.05,10.893-68.634,28.469l24.964,24.964
			c11.185-11.193,26.633-18.123,43.67-18.123s32.486,6.93,43.67,18.123l24.964-24.964C307.05,275.721,282.774,264.828,256,264.828"
			/>
		<path style="fill:#FFFFFF;" d="M256,194.207c-46.239,0-88.17,18.812-118.546,49.178l24.956,24.956
			c23.976-23.976,57.079-38.824,93.59-38.824s69.614,14.848,93.59,38.824l24.956-24.956C344.17,213.018,302.239,194.207,256,194.207
			"/>
		<path style="fill:#FFFFFF;" d="M256,123.586c-65.713,0-125.299,26.73-168.457,69.888l24.956,24.956
			c36.767-36.767,87.526-59.533,143.501-59.533s106.734,22.766,143.501,59.533l24.956-24.956
			C381.299,150.316,321.713,123.586,256,123.586"/>
	</g>
</g>
<g>
</g>
<g>
</g>
<g>
</g>
<g>
</g>
<g>
</g>
<g>
</g>
<g>
</g>
<g>
</g>
<g>
</g>
<g>
</g>
<g>
</g>
<g>
</g>
<g>
</g>
<g>
</g>
<g>
</g>
</svg>
